<svg viewBox="0 0 32 32" fill="none" xmlns="http://www.w3.org/2000/svg">
  <rect width="32" height="32" rx="8" fill="#D97757" />
  <path d="M15.2614 8.40543C15.6054 7.86484 16.3945 7.86484 16.7385 8.40543L17.7339 9.9693C18.8345 11.6987 20.3013 13.1654 22.0307 14.2661L23.5945 15.2614C24.1352 15.6054 24.1352 16.3945 23.5945 16.7385L22.0307 17.7339C20.3013 18.8345 18.8345 20.3013 17.7339 22.0307L16.7385 23.5945C16.3945 24.1352 15.6054 24.1352 15.2614 23.5945L14.2661 22.0307C13.1654 20.3013 11.6987 18.8345 9.9693 17.7339L8.40543 16.7385C7.86484 16.3945 7.86484 15.6054 8.40543 15.2614L9.9693 14.2661C11.6987 13.1654 13.1654 11.6987 14.2661 9.9693L15.2614 8.40543Z" fill="#F4F4F4" />
</svg>
