<svg viewBox="0 0 15 15" fill="none" xmlns="http://www.w3.org/2000/svg">
  <path d="M7.5 0C11.0355 0 12.803 0.000299273 13.9014 1.09863C14.9997 2.19698 15 3.96445 15 7.5C15 11.0355 14.9997 12.8031 13.9014 13.9014C12.803 14.9997 11.0355 15 7.5 15C3.96449 15 2.19699 14.9997 1.09863 13.9014C0.000285404 12.8031 0 11.0355 0 7.5C0 3.96445 0.000287434 2.19698 1.09863 1.09863C2.19699 0.000282931 3.96447 0 7.5 0ZM7.86914 3.70312C7.69714 3.43283 7.30286 3.43283 7.13086 3.70312L6.63281 4.48438C6.08249 5.34908 5.34908 6.08249 4.48438 6.63281L3.70312 7.13086C3.43283 7.30286 3.43283 7.69714 3.70312 7.86914L4.48438 8.36719C5.34908 8.91751 6.08249 9.65091 6.63281 10.5156L7.13086 11.2969C7.30286 11.5672 7.69714 11.5672 7.86914 11.2969L8.36719 10.5156C8.91751 9.65091 9.65091 8.91751 10.5156 8.36719L11.2969 7.86914C11.5672 7.69714 11.5672 7.30286 11.2969 7.13086L10.5156 6.63281C9.65091 6.08249 8.91751 5.34908 8.36719 4.48438L7.86914 3.70312Z" fill="#808080" />
</svg>
